<?xml version="1.0" encoding="utf-8"?>
<!-- Generator: Adobe Illustrator 19.2.1, SVG Export Plug-In . SVG Version: 6.00 Build 0)  -->
<svg version="1.1" id="Layer_1" xmlns="http://www.w3.org/2000/svg" xmlns:xlink="http://www.w3.org/1999/xlink" x="0px" y="0px"
	 viewBox="0 0 575.2 314.3" enable-background="new 0 0 575.2 314.3" xml:space="preserve">
<g>
	<path fill="#F7AAB3" d="M0.2,141.4C-4,187.9,63.1,229.8,118,201.3s76.5,46,135.3,63.7s66.7-44.3,100-36.9s54.5,58.7,105.9,54.5
		C625.9,268.8,582.7,8,469,0.2c-68.5-4.7-64.7,74.5-107.8,80.4s-41.7-43.1-98.3-43.1s-72.3,60.8-107.6,60.8S8.2,53.1,0.2,141.4z"/>
	<path fill="#335CAA" d="M5.7,172.8c-4.2,46.5,62.9,88.4,117.8,59.9s76.5,46,135.3,63.7s66.7-44.3,100-36.9
		c33.3,7.5,54.5,58.7,105.9,54.5c166.7-13.7,123.5-274.5,9.8-282.4c-68.5-4.7-64.7,74.5-107.8,80.4S325,68.9,268.4,68.9
		s-72.3,60.8-107.6,60.8S13.7,84.6,5.7,172.8z"/>
</g>
</svg>
