<?xml version="1.0" encoding="utf-8"?>
<!-- Generator: Adobe Illustrator 19.2.1, SVG Export Plug-In . SVG Version: 6.00 Build 0)  -->
<svg version="1.1" id="Layer_1" xmlns="http://www.w3.org/2000/svg" xmlns:xlink="http://www.w3.org/1999/xlink" x="0px" y="0px"
	 viewBox="0 0 352.5 364.5" enable-background="new 0 0 352.5 364.5" xml:space="preserve">
<g>
	<path fill="#F1624D" d="M37.8,0.1v330.3h311.8c0,0,21.1-51.3-49.4-59.3c-70.5-8-31.9-52.9-54.4-68.9s-40.2,2.7-69-23
		s-7.8-38.4-28.8-69.4c-24.6-36.3-57.6-24.2-59.8-55.6C83.8-6.6,37.8,0.4,37.8,0.1z"/>
	<path fill="#C3ACD1" d="M0,34.1l0,330.3h311.8c0,0,21.1-51.3-49.4-59.3s-31.9-52.9-54.4-68.9s-40.2,2.7-69-23s-7.8-38.4-28.8-69.4
		c-24.6-36.3-57.6-24.2-59.8-55.6C46.1,27.4,0,34.5,0,34.1z"/>
</g>
</svg>
