<?xml version="1.0" encoding="utf-8"?>
<!-- Generator: Adobe Illustrator 19.2.1, SVG Export Plug-In . SVG Version: 6.00 Build 0)  -->
<svg version="1.1" id="Layer_1" xmlns="http://www.w3.org/2000/svg" xmlns:xlink="http://www.w3.org/1999/xlink" x="0px" y="0px"
	 viewBox="0 0 120.3 96.4" enable-background="new 0 0 120.3 96.4" xml:space="preserve">
<g>
	<g>
		<path fill="#335CAA" d="M26.9,13.1H11.4v28.6h10.7V53H11.4v41.9H0V1.5h26.9V13.1z"/>
		<path fill="#335CAA" d="M56.6,94.8H29.6V1.5h26.9v11.5H41.1v28.6h10.7V53H41.1v30.3h15.5V94.8z"/>
		<path fill="#335CAA" d="M89.1,30H77.7V17c0-3.1-1.3-4.7-3.9-4.7c-2.6,0-3.9,1.7-3.9,5.1c0,3.7,1,8.1,2.9,13.2l12.5,30.2
			c2.6,6.1,3.8,11.8,3.8,17.3c0,5.9-1.6,10.5-4.7,13.8c-2.8,3-6.3,4.4-10.5,4.4c-4.1,0-7.7-1.4-10.7-4.2c-3.2-3.2-4.8-7.4-4.8-12.6
			V66.4h11.4v12.9c0,3.1,1.3,4.7,3.9,4.7c2.6,0,3.9-1.7,3.9-5.1c0-3.9-1.1-8.4-3.1-13.4L61.9,35.2c-2.3-5.7-3.5-11.4-3.5-17
			c0-5.9,1.6-10.5,4.7-13.8c2.8-3,6.3-4.4,10.5-4.4c4.2,0,7.7,1.4,10.6,4.2c3.3,3.2,4.9,7.4,4.9,12.6V30z"/>
		<path fill="#335CAA" d="M120.3,13.1h-8.9v81.8H100V13.1h-8.9V1.5h29.2V13.1z"/>
	</g>
</g>
</svg>
