<?xml version="1.0" encoding="utf-8"?>
<!-- Generator: Adobe Illustrator 19.2.1, SVG Export Plug-In . SVG Version: 6.00 Build 0)  -->
<svg version="1.1" id="Layer_1" xmlns="http://www.w3.org/2000/svg" xmlns:xlink="http://www.w3.org/1999/xlink" x="0px" y="0px"
	 viewBox="0 0 168 198.8" enable-background="new 0 0 168 198.8" xml:space="preserve">
<g>
	<g>
		<path fill="rgb(0, 84, 206)" d="M26.9,115.5H11.4v28.6h10.7v11.3H11.4v41.9H0V104h26.9V115.5z"/>
		<path fill="rgb(0, 84, 206)" d="M56.6,197.3H29.6V104h26.9v11.5H41.1v28.6h10.7v11.3H41.1v30.3h15.5V197.3z"/>
		<path fill="rgb(0, 84, 206)" d="M89.1,132.4H77.7v-12.9c0-3.1-1.3-4.7-3.9-4.7c-2.6,0-3.9,1.7-3.9,5.1c0,3.7,1,8.1,2.9,13.2l12.5,30.2
			c2.6,6.1,3.8,11.8,3.8,17.3c0,5.9-1.6,10.5-4.7,13.8c-2.8,3-6.3,4.4-10.5,4.4c-4.1,0-7.7-1.4-10.7-4.2c-3.2-3.2-4.8-7.4-4.8-12.6
			v-13.2h11.4v12.9c0,3.1,1.3,4.7,3.9,4.7c2.6,0,3.9-1.7,3.9-5.1c0-3.9-1.1-8.4-3.1-13.4l-12.6-30.2c-2.3-5.7-3.5-11.4-3.5-17
			c0-5.9,1.6-10.5,4.7-13.8c2.8-3,6.3-4.4,10.5-4.4c4.2,0,7.7,1.4,10.6,4.2c3.3,3.2,4.9,7.4,4.9,12.6V132.4z"/>
		<path fill="rgb(0, 84, 206)" d="M120.3,115.5h-8.9v81.8H100v-81.8h-8.9V104h29.2V115.5z"/>
	</g>
</g>
<path fill="#FFFFFF" d="M20.1,0C9.3,0,0.6,8.7,0.6,19.5v54.4c0,10.7,8.8,19.5,19.6,19.5c4.6,0,8.8-1.6,12.2-4.2l1.5,4.2h4.7
	c0.7,0,1.2-0.5,1.2-1.2V39c0-0.7-0.5-1.2-1.2-1.2H20.7c-0.7,0-1.2,0.5-1.2,1.2v10.6c0,0.7,0.5,1.2,1.2,1.2h5.9v23.1
	c0,3.6-2.9,6.5-6.5,6.5c-3.6,0-6.5-2.9-6.5-6.5V19.5c0-3.6,2.9-6.5,6.5-6.5c3.6,0,6.5,2.9,6.5,6.5v4.1c0,0.6,0.5,1.2,1.2,1.2h10.7
	c0.7,0,1.2-0.5,1.2-1.2v-4.1C39.7,8.7,31,0,20.1,0z"/>
<path fill="#FFFFFF" d="M62.9,0C52.1,0,43.3,8.7,43.3,19.5v54.4c0,10.7,8.8,19.5,19.6,19.5c10.8,0,19.6-8.8,19.6-19.5V19.5
	C82.5,8.7,73.7,0,62.9,0z M69.4,73.9c0,3.6-2.9,6.5-6.5,6.5c-3.6,0-6.5-2.9-6.5-6.5V19.5c0-3.6,2.9-6.5,6.5-6.5
	c3.6,0,6.5,2.9,6.5,6.5V73.9z"/>
<g>
	<path fill="#FFFFFF" d="M105.6,0C94.8,0,86,8.7,86,19.5v54.4c0,10.7,8.8,19.5,19.6,19.5c10.8,0,19.6-8.8,19.6-19.5V19.5
		C125.2,8.7,116.4,0,105.6,0z M112.2,73.9c0,3.6-2.9,6.5-6.5,6.5c-3.6,0-6.5-2.9-6.5-6.5V19.5c0-3.6,2.9-6.5,6.5-6.5
		c3.6,0,6.5,2.9,6.5,6.5V73.9z"/>
</g>
<g>
	<path fill="#FFFFFF" d="M148.4,0H130c-0.7,0-1.2,0.5-1.2,1.2v91c0,0.7,0.5,1.2,1.2,1.2h18.4c10.8,0,19.6-8.8,19.6-19.5V19.5
		C168,8.7,159.2,0,148.4,0z M154.9,73.9c0,3.6-2.9,6.5-6.5,6.5h-6.5V13h6.5c3.6,0,6.5,2.9,6.5,6.5V73.9z"/>
</g>
</svg>
