<?xml version="1.0" encoding="utf-8"?>
<!-- Generator: Adobe Illustrator 19.2.1, SVG Export Plug-In . SVG Version: 6.00 Build 0)  -->
<svg version="1.1" id="Layer_1" xmlns="http://www.w3.org/2000/svg" xmlns:xlink="http://www.w3.org/1999/xlink" x="0px" y="0px"
	 viewBox="0 0 167.4 93.4" enable-background="new 0 0 167.4 93.4" xml:space="preserve">
<path fill="#FFFFFF" d="M19.6,0C8.8,0,0,8.7,0,19.5v54.4c0,10.7,8.8,19.5,19.6,19.5c4.6,0,8.8-1.6,12.2-4.2l1.5,4.2H38
	c0.7,0,1.2-0.5,1.2-1.2V39c0-0.7-0.5-1.2-1.2-1.2H20.2c-0.7,0-1.2,0.5-1.2,1.2v10.6c0,0.7,0.5,1.2,1.2,1.2h5.9v23.1
	c0,3.6-2.9,6.5-6.5,6.5c-3.6,0-6.5-2.9-6.5-6.5V19.5c0-3.6,2.9-6.5,6.5-6.5c3.6,0,6.5,2.9,6.5,6.5v4.1c0,0.6,0.5,1.2,1.2,1.2H38
	c0.7,0,1.2-0.5,1.2-1.2v-4.1C39.2,8.7,30.4,0,19.6,0z"/>
<path fill="#FFFFFF" d="M62.3,0C51.5,0,42.7,8.7,42.7,19.5v54.4c0,10.7,8.8,19.5,19.6,19.5c10.8,0,19.6-8.8,19.6-19.5V19.5
	C81.9,8.7,73.1,0,62.3,0z M68.9,73.9c0,3.6-2.9,6.5-6.5,6.5c-3.6,0-6.5-2.9-6.5-6.5V19.5c0-3.6,2.9-6.5,6.5-6.5
	c3.6,0,6.5,2.9,6.5,6.5V73.9z"/>
<g>
	<path fill="#FFFFFF" d="M105.1,0C94.3,0,85.5,8.7,85.5,19.5v54.4c0,10.7,8.8,19.5,19.6,19.5c10.8,0,19.6-8.8,19.6-19.5V19.5
		C124.7,8.7,115.9,0,105.1,0z M111.6,73.9c0,3.6-2.9,6.5-6.5,6.5c-3.6,0-6.5-2.9-6.5-6.5V19.5c0-3.6,2.9-6.5,6.5-6.5
		c3.6,0,6.5,2.9,6.5,6.5V73.9z"/>
</g>
<g>
	<path fill="#FFFFFF" d="M147.8,0h-18.4c-0.7,0-1.2,0.5-1.2,1.2v91c0,0.7,0.5,1.2,1.2,1.2h18.4c10.8,0,19.6-8.8,19.6-19.5V19.5
		C167.4,8.7,158.6,0,147.8,0z M154.3,73.9c0,3.6-2.9,6.5-6.5,6.5h-6.5V13h6.5c3.6,0,6.5,2.9,6.5,6.5V73.9z"/>
</g>
</svg>
